<?xml version="1.0" encoding="UTF-8" standalone="no"?>
<!DOCTYPE svg  PUBLIC '-//W3C//DTD SVG 1.1//EN'  'http://www.w3.org/Graphics/SVG/1.1/DTD/svg11.dtd'>
<svg xmlns="http://www.w3.org/2000/svg" version="1.1">
<defs>
<font id="MeiryoUI-Bold" vert-adv-y="2048" horiz-adv-x="1386">
<font-face bbox="-392 -428 2287 2171" units-per-em="2048" x-height="1158" underline-position="-460" font-family="Meiryo UI" underline-thickness="102" cap-height="1507" font-weight="700" panose-1="2 11 8 4 3 5 4 4 2 4" unicode-range="U+0021-2074" descent="-250" ascent="1798"/>
<missing-glyph/>
<glyph unicode=" " glyph-name="uni00A0" horiz-adv-x="680"/>
<glyph unicode=" " glyph-name="uni00A0" horiz-adv-x="680"/>
<glyph d="M575 1507l-40 -1069h-281l-41 1069h362zM567 0h-345v260h345v-260z" unicode="!" glyph-name="exclam" horiz-adv-x="788"/>
<glyph d="M954 1574l-58 -593h-203l-58 593h319zM465 1574l-58 -593h-203l-58 593h319z" unicode='&quot;' glyph-name="quotedbl" horiz-adv-x="1100"/>
<glyph d="M1568 924h-325l-83 -335h293v-210h-346l-96 -379h-209l95 379h-269l-95 -379h-211l95 379h-282v210h335l83 335h-301v209h353l93 374h212l-93 -374h268l94 374h211l-94 -374h272v-209zM1036 926h-273l-86 -340h275z" unicode="#" glyph-name="numbersign" horiz-adv-x="1706"/>
<glyph unicode="$" glyph-name="dollar" d="M781 -1v-364h-159v359q-281 1 -482 96v261h36q74 -46 203.5 -86t244.5 -45v336q-313 64 -406 161t-93 249q0 155 135 260.5t362 125.5v243h159v-242q234 -11 407 -82v-258h-36q-178 103 -373 116v-323l91 -19q120 -25 194.5 -57t121.5 -75t70.5 -102.5t23.5 -135.5 q0 -168 -136.5 -284.5t-362.5 -133.5zM631 828v302q-198 -16 -198 -148q0 -67 44.5 -100t153.5 -54zM772 534v-312q196 20 196 158q0 122 -196 154z"/>
<glyph d="M550 580q-433 0 -433 478q0 479 433 479q429 0 429 -476q0 -481 -429 -481zM548 1349q-89 0 -129.5 -61t-40.5 -230q0 -170 40.5 -230t129.5 -60t129.5 61t40.5 230q0 165 -40.5 227.5t-129.5 62.5zM1741 1507l-890 -1507h-240l890 1507h240zM1806 -30q-433 0 -433 478 q0 479 433 479q429 0 429 -476q0 -481 -429 -481zM1804 739q-89 0 -129.5 -61t-40.5 -230q0 -170 40.5 -230t129.5 -60t129.5 61t40.5 230q0 165 -40.5 227.5t-129.5 62.5z" unicode="%" glyph-name="percent" horiz-adv-x="2336"/>
<glyph d="M1729 0h-392l-170 159q-206 -190 -482 -190q-259 0 -412 125.5t-153 333.5q0 265 282 416q-118 86 -162.5 163t-44.5 174q0 156 133.5 256.5t370.5 100.5q219 0 345.5 -88t126.5 -234q0 -272 -332 -382l330 -302q10 29 10 360h321v-108q0 -244 -139 -422l368 -335v-27z M849 1180q0 171 -166 171q-68 0 -115 -44t-47 -120q0 -114 186 -244q142 80 142 237zM1017 303l-461 423q-99 -82 -99 -242q0 -128 84 -206.5t214 -78.5q160 0 262 104z" unicode="&amp;" glyph-name="ampersand" horiz-adv-x="1696"/>
<glyph d="M463 1574l-58 -593h-203l-58 593h319z" unicode="&apos;" glyph-name="quotesingle" horiz-adv-x="607"/>
<glyph d="M876 -417h-334q-202 240 -291.5 477t-89.5 519q0 550 381 995h334v-24q-200 -180 -315.5 -434t-115.5 -537t115.5 -537.5t315.5 -435.5v-23z" unicode="(" glyph-name="parenleft" horiz-adv-x="1008"/>
<glyph d="M466 -417h-334v23q202 183 316.5 436.5t114.5 536.5t-114.5 536t-316.5 435v24h334q381 -445 381 -995q0 -281 -88.5 -517.5t-292.5 -478.5z" unicode=")" glyph-name="parenright" horiz-adv-x="1008"/>
<glyph unicode="*" glyph-name="asterisk" d="M1197 1229l-351 -187l350 -185l-90 -159l-338 211l13 -398h-181l13 398l-336 -211l-90 159l350 185l-351 187l91 158l337 -211l-13 398h181l-13 -398l337 211z"/>
<glyph d="M1517 548h-543v-540h-243v540h-543v237h543v540h243v-540h543v-237z" unicode="+" glyph-name="plus" horiz-adv-x="1706"/>
<glyph d="M594 364l-340 -738h-205l192 738h353z" unicode="," glyph-name="comma" horiz-adv-x="711"/>
<glyph d="M526 0h-341v364h341v-364z" unicode="." glyph-name="period" horiz-adv-x="711"/>
<glyph d="M1083 1574l-758 -1896h-269l756 1896h271z" unicode="/" glyph-name="slash" horiz-adv-x="1217"/>
<glyph unicode="0" glyph-name="zero" d="M693 -32q-307 0 -450.5 186.5t-143.5 598.5q0 408 144 596t450 188t450 -187.5t144 -595.5q0 -415 -143 -600.5t-451 -185.5zM693 1304q-140 0 -200.5 -131.5t-60.5 -420.5q0 -288 62 -420t199 -132t199 134t62 420q0 288 -60.5 419t-200.5 131z"/>
<glyph unicode="1" glyph-name="one" d="M1213 0h-959v220h323v872h-323v202q192 2 271.5 53.5t92.5 162.5h279v-1290h316v-220z"/>
<glyph unicode="2" glyph-name="two" d="M1287 0h-1136v237q431 328 579.5 506t148.5 316q0 110 -71.5 170.5t-196.5 60.5q-190 0 -396 -135h-25v287q248 95 473 95q267 0 411.5 -116.5t144.5 -326.5q0 -162 -117.5 -342.5t-546.5 -508.5h732v-243z"/>
<glyph unicode="3" glyph-name="three" d="M125 63v284h32q229 -131 429 -131q158 0 247 65.5t89 191.5q0 100 -69.5 154.5t-287.5 54.5h-88v227h83q336 0 336 205q0 86 -72 130.5t-205 44.5q-179 0 -420 -128h-30v281q254 95 489 95q278 0 420.5 -102t142.5 -271q0 -126 -79 -220.5t-211 -126.5v-14 q151 -27 239 -117.5t88 -233.5q0 -220 -168 -352t-455 -132q-278 0 -510 95zM-3 0z"/>
<glyph unicode="4" glyph-name="four" d="M1320 375h-214v-378h-316v378h-728v265l714 867h330v-900h214v-232zM790 607v591l-488 -591h488z"/>
<glyph unicode="5" glyph-name="five" d="M150 58v286h33q219 -128 413 -128q336 0 336 271q0 115 -93 177t-275 62q-124 0 -317 -45h-37v826h1024v-245h-714v-309q115 7 169 7q282 0 430 -122.5t148 -338.5q0 -238 -170 -384.5t-461 -146.5q-267 0 -486 90z"/>
<glyph unicode="6" glyph-name="six" d="M1164 1512v-258h-29q-95 46 -229 46q-409 0 -456 -428q198 118 358 118q221 0 356.5 -127t135.5 -356q0 -238 -162.5 -388.5t-417.5 -150.5q-293 0 -448.5 180.5t-155.5 521.5q0 419 205.5 643t596.5 224q138 0 246 -25zM449 709l-1 -41q-1 -33 -1 -53q0 -422 274 -422 q110 0 177.5 78t67.5 219q0 275 -287 275q-112 0 -230 -56z"/>
<glyph unicode="7" glyph-name="seven" d="M1275 1239l-684 -1239h-360l716 1262h-811v245h1139v-268z"/>
<glyph unicode="8" glyph-name="eight" d="M379 771v6q-250 120 -250 357q0 178 156 292t410 114q260 0 412 -104.5t152 -277.5q0 -226 -265 -342v-6q304 -119 304 -391q0 -202 -166.5 -328t-439.5 -126q-281 0 -442.5 120.5t-161.5 319.5q0 246 291 366zM937 1128q0 87 -67 139t-175 52q-102 0 -170 -47t-68 -124 q0 -76 73 -134t291 -124q116 102 116 238zM556 699q-141 -105 -141 -256q0 -116 82 -186.5t210 -70.5q111 0 186 57.5t75 155.5q0 53 -17.5 91.5t-67 70t-90.5 49.5t-237 89z"/>
<glyph unicode="9" glyph-name="nine" d="M218 -8v257h31q97 -44 230 -44q411 0 457 430q-194 -119 -356 -119q-221 0 -357 126t-136 357q0 237 162.5 387.5t421.5 150.5q289 0 445 -177.5t156 -520.5q0 -419 -206.5 -645t-598.5 -226q-159 0 -249 24zM938 796q0 10 2 45q1 34 1 51q0 420 -272 420 q-111 0 -179.5 -78.5t-68.5 -217.5q0 -275 290 -275q108 0 227 55z"/>
<glyph d="M584 794h-341v364h341v-364zM584 0h-341v364h341v-364z" unicode=":" glyph-name="colon" horiz-adv-x="827"/>
<glyph d="M584 794h-341v364h341v-364zM648 364l-339 -738h-206l192 738h353z" unicode=";" glyph-name="semicolon" horiz-adv-x="827"/>
<glyph d="M1487 20l-1295 547v198l1295 549v-257l-939 -391l939 -390v-256z" unicode="&lt;" glyph-name="less" horiz-adv-x="1706"/>
<glyph d="M1485 797h-1264v237h1264v-237zM1485 299h-1264v237h1264v-237z" unicode="=" glyph-name="equal" horiz-adv-x="1706"/>
<glyph d="M1514 567l-1295 -547v256l938 391l-938 390v257l1295 -549v-198z" unicode="&gt;" glyph-name="greater" horiz-adv-x="1706"/>
<glyph d="M681 635v-220h-301v321q214 77 298.5 161t84.5 192q0 201 -258 201q-165 0 -341 -110h-31v274q230 83 445 83q240 0 380.5 -107.5t140.5 -286.5q0 -165 -91.5 -283.5t-326.5 -224.5zM706 0h-346v260h346v-260z" unicode="?" glyph-name="question" horiz-adv-x="1192"/>
<glyph d="M1741 147h-491l-35 129q-91 -81 -154 -108.5t-144 -27.5q-152 0 -244.5 134t-92.5 362q0 227 111 370t274 143q111 0 246 -88l15 61h202v-819h197q79 160 79 359q0 331 -177.5 519t-483.5 188q-287 0 -487 -204.5t-200 -516.5q0 -327 191 -525t490 -198q191 0 387 53 v-181q-181 -42 -387 -42q-385 0 -630 249.5t-245 644.5q0 377 254 633t626 256q378 0 614.5 -241.5t236.5 -629.5q0 -287 -152 -520zM1212 410v519q-71 34 -151 34q-121 0 -186.5 -83.5t-65.5 -236.5q0 -305 216 -305q95 0 187 72z" unicode="@" glyph-name="at" horiz-adv-x="2055"/>
<glyph d="M1510 0h-349l-114 327h-593l-114 -327h-334l569 1507h366zM964 561l-213 608l-213 -608h426z" unicode="A" glyph-name="A" horiz-adv-x="1516"/>
<glyph d="M179 0v1507h542q344 0 467.5 -90.5t123.5 -255.5q0 -218 -214 -317v-8q323 -68 323 -373q0 -213 -159.5 -338t-462.5 -125h-620zM507 1270v-365h124q153 0 217 16.5t95 63t31 116.5q0 56 -27.5 96t-89.5 56.5t-250 16.5h-100zM507 681v-444h103q137 0 211 3t134.5 29 t92 75t31.5 119q0 76 -32.5 125t-94 71t-287.5 22h-158z" unicode="B" glyph-name="B" horiz-adv-x="1498"/>
<glyph d="M1345 101q-190 -87 -302 -109t-216 -22q-346 0 -545 206t-199 575q0 362 201.5 573.5t543.5 211.5q265 0 517 -127v-309h-35q-235 200 -445 200q-201 0 -318 -143.5t-117 -406.5q0 -261 119 -402.5t318 -141.5q104 0 203 36.5t243 162.5h32v-304z" unicode="C" glyph-name="C" horiz-adv-x="1409"/>
<glyph d="M179 0v1507h471q320 0 499 -82t282.5 -252t103.5 -421q0 -227 -107.5 -407.5t-287.5 -262.5t-486 -82h-475zM509 1270v-1033h162q519 0 519 518q0 515 -519 515h-162z" unicode="D" glyph-name="D" horiz-adv-x="1618"/>
<glyph d="M1229 0h-1050v1507h1050v-250h-722v-322h671v-249h-671v-436h722v-250z" unicode="E" glyph-name="E" horiz-adv-x="1338"/>
<glyph d="M1233 1257h-726v-335h658v-249h-656v-673h-330v1507h1054v-250z" unicode="F" glyph-name="F" horiz-adv-x="1261"/>
<glyph d="M1451 93q-304 -125 -573 -125q-374 0 -584.5 207t-210.5 580q0 359 215.5 570t587.5 211q280 0 561 -133v-306h-35q-177 132 -289 167.5t-216 35.5q-220 0 -348.5 -143.5t-128.5 -395.5q0 -274 132.5 -417.5t384.5 -143.5q97 0 181 25v343h-337v240h660v-715z" unicode="G" glyph-name="G" horiz-adv-x="1587"/>
<glyph d="M1472 0h-330v686h-633v-686h-330v1507h330v-573h633v573h330v-1507z" unicode="H" glyph-name="H" horiz-adv-x="1651"/>
<glyph d="M932 0h-822v225h246v1057h-246v225h822v-225h-246v-1057h246v-225z" unicode="I" glyph-name="I" horiz-adv-x="1042"/>
<glyph d="M878 428q0 -210 -141 -330t-394 -120q-167 0 -329 32v266h28q138 -51 233 -51q93 0 153.5 25.5t90 82.5t29.5 246v688h-336v240h666v-1079z" unicode="J" glyph-name="J" horiz-adv-x="1038"/>
<glyph d="M1523 0h-408l-496 624l-112 -127v-497h-328v1507h330v-716l601 716h384l-616 -700z" unicode="K" glyph-name="K" horiz-adv-x="1522"/>
<glyph d="M1225 0h-1046v1507h330v-1257h716v-250z" unicode="L" glyph-name="L" horiz-adv-x="1235"/>
<glyph d="M1680 0h-326v1059l-325 -703h-219l-325 700v-1056h-306v1507h370l381 -801l380 801h370v-1507z" unicode="M" glyph-name="M" horiz-adv-x="1859"/>
<glyph d="M1479 0h-318l-676 1105v-1105h-306v1507h400l594 -974v974h306v-1507z" unicode="N" glyph-name="N" horiz-adv-x="1658"/>
<glyph d="M820 -32q-344 0 -540.5 209.5t-196.5 574.5q0 367 195.5 576.5t541.5 209.5q345 0 541.5 -210t196.5 -576q0 -363 -195.5 -573.5t-542.5 -210.5zM821 1300q-179 0 -285 -143t-106 -405q0 -261 106 -403.5t285 -142.5q178 0 284 143.5t106 403.5q0 261 -105.5 404 t-284.5 143z" unicode="O" glyph-name="O" horiz-adv-x="1641"/>
<glyph d="M509 513v-513h-330v1507h570q293 0 445 -119.5t152 -349.5q0 -240 -168 -382.5t-438 -142.5h-231zM507 1270v-518h88q248 0 328.5 68.5t80.5 210.5q0 117 -77.5 178t-306.5 61h-113z" unicode="P" glyph-name="P" horiz-adv-x="1406"/>
<glyph d="M1562 -386q-132 -34 -299 -34q-208 0 -327 102t-129 287q-338 4 -531 213t-193 570q0 367 195.5 576.5t541.5 209.5q345 0 541.5 -210t196.5 -576q0 -273 -114 -463t-328 -271q6 -115 59.5 -162t173.5 -47q100 0 188 42h25v-237zM821 1300q-179 0 -285 -143t-106 -405 q0 -261 106 -403.5t285 -142.5q178 0 284 143.5t106 403.5q0 261 -105.5 404t-284.5 143z" unicode="Q" glyph-name="Q" horiz-adv-x="1641"/>
<glyph d="M1569 0h-408l-442 571h-210v-571h-330v1507h577q314 0 452.5 -111.5t138.5 -302.5q0 -299 -301 -443zM507 1270v-469h148q213 0 282 71t69 186q0 102 -66 157t-260 55h-173z" unicode="R" glyph-name="R" horiz-adv-x="1535"/>
<glyph d="M95 90v319h34q112 -92 257.5 -146t279.5 -54q139 0 224 50t85 139q0 69 -40.5 110t-153.5 68q-81 15 -276.5 59t-298 154.5t-102.5 282.5q0 205 175 333.5t450 128.5q280 0 526 -102v-305h-33q-210 170 -482 170q-129 0 -212.5 -48t-83.5 -131q0 -71 47.5 -113t162.5 -69 q115 -21 256.5 -55.5t211 -77.5t111 -93.5t62 -112.5t20.5 -137q0 -220 -179.5 -354t-475.5 -134q-288 0 -565 118z" unicode="S" glyph-name="S" horiz-adv-x="1381"/>
<glyph d="M1337 1257h-495v-1257h-330v1257h-495v250h1320v-250z" unicode="T" glyph-name="T" horiz-adv-x="1354"/>
<glyph d="M1443 564q0 -297 -166.5 -446t-475.5 -149q-310 0 -475.5 150.5t-165.5 444.5v943h331v-934q0 -188 77 -272t233 -84q160 0 235.5 83.5t75.5 270.5v936h331v-943z" unicode="U" glyph-name="U" horiz-adv-x="1603"/>
<glyph d="M1486 1507l-572 -1507h-337l-571 1507h347l399 -1101l398 1101h336z" unicode="V" glyph-name="V" horiz-adv-x="1492"/>
<glyph d="M2118 1507l-425 -1507h-306l-313 1119l-305 -1119h-307l-428 1507h344l257 -1030l283 1030h329l276 -1033l264 1033h331z" unicode="W" glyph-name="W" horiz-adv-x="2152"/>
<glyph d="M1474 0h-392l-349 537l-356 -537h-359l532 757l-521 750h391l340 -517l348 517h361l-525 -737z" unicode="X" glyph-name="X" horiz-adv-x="1492"/>
<glyph d="M1437 1507l-548 -929v-578h-330v559l-558 948h373l362 -653l346 653h355z" unicode="Y" glyph-name="Y" horiz-adv-x="1438"/>
<glyph d="M1314 0h-1237v252l812 1005h-776v250h1167v-254l-810 -1003h844v-250z" unicode="Z" glyph-name="Z" horiz-adv-x="1378"/>
<glyph d="M847 -397h-629v1971h629v-206h-356v-1559h356v-206z" unicode="[" glyph-name="bracketleft" horiz-adv-x="1008"/>
<glyph unicode="\" glyph-name="backslash" d="M1347 1507l-417 -716h266v-153h-348v-162h348v-153h-346v-323h-316v323h-346v153h348v162h-348v153h257l-406 716h364l297 -599l297 599h350z"/>
<glyph d="M790 -397h-629v206h356v1559h-356v206h629v-1971z" unicode="]" glyph-name="bracketright" horiz-adv-x="1008"/>
<glyph d="M1541 663h-286l-414 592l-391 -594h-284l569 846h213z" unicode="^" glyph-name="asciicircum" horiz-adv-x="1706"/>
<glyph unicode="̀" glyph-name="gravecomb" d="M926 1303h-224l-356 373v20h333z"/>
<glyph unicode="`" glyph-name="gravecomb" d="M926 1303h-224l-356 373v20h333z"/>
<glyph d="M1141 0h-305v151q-141 -121 -228.5 -151.5t-186.5 -30.5q-152 0 -252 98.5t-100 253.5q0 196 147.5 297t622.5 126v31q0 109 -75 158t-248 49q-118 0 -338 -90h-11v243q232 56 420 56q293 0 423.5 -94.5t130.5 -300.5v-796zM836 282v292q-302 -25 -378 -77.5t-76 -145.5 q0 -99 53 -138t166 -39q119 0 235 108z" unicode="a" glyph-name="a" horiz-adv-x="1290"/>
<glyph d="M467 82l-20 -82h-288v1574h307v-571q134 113 218.5 150t178.5 37q204 0 315.5 -157t111.5 -441q0 -278 -142 -451t-354 -173q-152 0 -327 114zM466 871v-642q102 -38 187 -38q319 0 319 393q0 369 -267 369q-109 0 -239 -82z" unicode="b" glyph-name="b" horiz-adv-x="1363"/>
<glyph d="M1066 57q-194 -88 -351 -88q-304 0 -474 157t-170 448q0 293 172 454.5t460 161.5q188 0 363 -89v-282h-16q-170 152 -335 152q-153 0 -238 -105t-85 -292t85.5 -286.5t242.5 -99.5q167 0 330 152h16v-283z" unicode="c" glyph-name="c" horiz-adv-x="1120"/>
<glyph d="M1204 0h-307v152q-150 -122 -226 -153t-163 -31q-199 0 -317 161.5t-118 439.5q0 276 143 448.5t355 172.5q76 0 139 -17t187 -82v483h307v-1574zM897 297v627q-100 43 -186 43q-320 0 -320 -390q0 -197 66 -284.5t207 -87.5q106 0 233 92z" unicode="d" glyph-name="d" horiz-adv-x="1363"/>
<glyph d="M1202 531h-821q20 -348 395 -348q196 0 394 142h11v-266q-235 -90 -442 -90q-326 0 -497 155t-171 447q0 290 162 456.5t447 166.5q522 0 522 -555v-108zM895 705q-4 299 -243 299q-254 0 -271 -299h514z" unicode="e" glyph-name="e" horiz-adv-x="1270"/>
<glyph d="M853 1353h-8q-78 22 -148 22q-122 0 -168 -42.5t-46 -153.5v-21h292v-203h-281v-955h-308v955h-158v203h158v40q0 387 426 387q141 0 241 -17v-215z" unicode="f" glyph-name="f" horiz-adv-x="800"/>
<glyph d="M1204 133q0 -287 -144 -424t-461 -137q-205 0 -406 45v250h15q199 -71 345 -71q179 0 261.5 63t82.5 249v64q-179 -154 -347 -154q-477 0 -477 591q0 262 138.5 421.5t354.5 159.5q169 0 327 -106l21 74h290v-1025zM897 340v584q-101 43 -187 43q-319 0 -319 -365 q0 -183 66.5 -264.5t206.5 -81.5q109 0 233 84z" unicode="g" glyph-name="g" horiz-adv-x="1363"/>
<glyph d="M1243 0h-309v577q0 242 -53.5 300.5t-173.5 58.5q-100 0 -241 -89v-847h-307v1574h307v-578q144 118 230.5 156t180.5 38q366 0 366 -429v-761z" unicode="h" glyph-name="h" horiz-adv-x="1393"/>
<glyph d="M477 1303h-329v271h329v-271zM466 0h-307v1158h307v-1158z" unicode="i" glyph-name="i" horiz-adv-x="625"/>
<glyph d="M611 1303h-329v271h329v-271zM607 -10q0 -194 -112 -306t-303 -112q-168 0 -273 27v228h15q94 -32 166 -32q107 0 153.5 57.5t46.5 233.5v869h-230v203h537v-1168z" unicode="j" glyph-name="j" horiz-adv-x="766"/>
<glyph d="M1286 0h-364l-325 505l-133 -164v-341h-305v1574h307v-978l436 562h353l-410 -500z" unicode="k" glyph-name="k" horiz-adv-x="1281"/>
<glyph d="M466 0h-307v1574h307v-1574z" unicode="l" glyph-name="l" horiz-adv-x="625"/>
<glyph d="M1952 0h-309v581q0 116 -10.5 203.5t-61 119.5t-139.5 32q-79 0 -223 -88v-848h-309v581q0 122 -12 206.5t-62.5 116.5t-137.5 32q-83 0 -222 -89v-847h-307v1158h307v-162q152 125 230.5 159.5t162.5 34.5q218 0 322 -222q147 128 240 175t182 47q349 0 349 -429v-761z " unicode="m" glyph-name="m" horiz-adv-x="2102"/>
<glyph d="M1243 0h-309v577q0 242 -53.5 300.5t-173.5 58.5q-100 0 -241 -89v-847h-307v1158h307v-162q144 118 230.5 156t180.5 38q366 0 366 -429v-761z" unicode="n" glyph-name="n" horiz-adv-x="1393"/>
<glyph d="M665 -36q-282 0 -438 162.5t-156 451.5q0 290 157.5 453t436.5 163q281 0 437.5 -163t156.5 -453q0 -289 -156.5 -451.5t-437.5 -162.5zM665 980q-273 0 -273 -405q0 -397 277 -397q269 0 269 397q0 405 -273 405z" unicode="o" glyph-name="o" horiz-adv-x="1330"/>
<glyph d="M466 82v-499h-307v1575h307v-155q134 113 218.5 150t178.5 37q203 0 315 -156t112 -436q0 -275 -142 -445.5t-354 -170.5q-148 0 -328 100zM466 871v-638q82 -34 187 -34q319 0 319 387q0 367 -267 367q-109 0 -239 -82z" unicode="p" glyph-name="p" horiz-adv-x="1363"/>
<glyph d="M1204 -417h-307v567q-136 -106 -214.5 -137t-174.5 -31q-199 0 -317 159t-118 435q0 274 142.5 444t355.5 170q139 0 325 -105l16 73h292v-1575zM897 310v615q-101 42 -186 42q-320 0 -320 -383q0 -195 66 -280t207 -85q106 0 233 91z" unicode="q" glyph-name="q" horiz-adv-x="1363"/>
<glyph d="M942 845h-10q-62 16 -166 16q-163 0 -300 -52v-809h-307v1158h307v-210q141 127 232 170.5t179 43.5q23 0 65 -2v-315z" unicode="r" glyph-name="r" horiz-adv-x="962"/>
<glyph d="M80 55v284h12q207 -167 436 -167q232 0 232 126q0 51 -36 77.5t-130 47.5q-65 12 -185 39t-188.5 75t-101.5 116t-33 157q0 169 147 274.5t395 105.5q219 0 395 -77v-270h-8q-201 143 -389 143q-97 0 -162 -36t-65 -90q0 -61 40.5 -88.5t135.5 -49.5q121 -22 241 -53 t189 -109.5t69 -202.5q0 -177 -149.5 -283t-403.5 -106q-252 0 -441 87z" unicode="s" glyph-name="s" horiz-adv-x="1126"/>
<glyph d="M842 7q-123 -30 -263 -30q-207 0 -303 88.5t-96 286.5v603h-152v203h153v325h306v-325h355v-203h-355v-477q0 -184 47 -240t158 -56q71 0 141 35h9v-210z" unicode="t" glyph-name="t" horiz-adv-x="872"/>
<glyph d="M1234 0h-307v162q-140 -114 -228 -154t-183 -40q-366 0 -366 429v761h309v-577q0 -242 53 -301t173 -59q103 0 242 90v847h307v-1158z" unicode="u" glyph-name="u" horiz-adv-x="1393"/>
<glyph d="M1242 1158l-474 -1158h-290l-472 1158h333l295 -802l292 802h316z" unicode="v" glyph-name="v" horiz-adv-x="1248"/>
<glyph d="M1804 1158l-352 -1158h-268l-267 827l-267 -827h-270l-352 1158h322l200 -762l243 762h269l237 -760l195 760h310z" unicode="w" glyph-name="w" horiz-adv-x="1832"/>
<glyph d="M1285 0h-365l-271 383l-275 -383h-346l443 578l-437 580h364l267 -376l269 376h347l-440 -571z" unicode="x" glyph-name="x" horiz-adv-x="1313"/>
<glyph d="M1242 1158l-635 -1575h-324l176 415l-453 1160h333l292 -827l295 827h316z" unicode="y" glyph-name="y" horiz-adv-x="1248"/>
<glyph d="M1098 0h-1023v204l633 741h-611v213h987v-200l-636 -745h650v-213z" unicode="z" glyph-name="z" horiz-adv-x="1161"/>
<glyph d="M1174 -397h-238q-199 0 -310.5 103t-111.5 289v153q0 178 -81.5 256t-257.5 78h-65v215h65q178 0 258.5 79t80.5 254v152q0 186 112 289t310 103h238v-194h-115q-150 0 -205.5 -59.5t-55.5 -195.5v-136q0 -263 -318 -388v-24q318 -125 318 -388v-137q0 -132 54 -193.5 t207 -61.5h115v-194z" unicode="{" glyph-name="braceleft" horiz-adv-x="1335"/>
<glyph d="M644 -397h-264v1971h264v-1971z" unicode="|" glyph-name="bar" horiz-adv-x="1024"/>
<glyph d="M1225 482h-65q-176 0 -257.5 -78t-81.5 -256v-153q0 -186 -111.5 -289t-310.5 -103h-238v194h115q153 0 207 61.5t54 193.5v137q0 263 318 388v24q-318 125 -318 388v136q0 136 -55.5 195.5t-205.5 59.5h-115v194h238q198 0 310 -103t112 -289v-152q0 -175 80.5 -254 t258.5 -79h65v-215z" unicode="}" glyph-name="braceright" horiz-adv-x="1335"/>
<glyph d="M566 898h-345v260h345v-260zM575 -349h-362l40 1069h281z" unicode="¡" glyph-name="exclamdown" horiz-adv-x="788"/>
<glyph unicode="¢" glyph-name="cent" d="M1208 76q-159 -66 -324 -79v-362h-159v361q-273 18 -426 171t-153 411q0 263 153.5 418t425.5 174v317h159v-318q178 -15 324 -82v-271h-36q-116 100 -289 127v-721q176 22 289 126h36v-272zM726 223v722q-127 -22 -198.5 -122.5t-71.5 -244.5q0 -145 70 -239t200 -116z "/>
<glyph unicode="£" glyph-name="sterling" d="M1273 0h-1146v239q111 30 160.5 113.5t49.5 267.5h-178v200h178v274q0 196 145 319.5t377 123.5q197 0 356 -48v-288h-24q-155 89 -290 89q-112 0 -180.5 -67t-68.5 -181v-222h457v-200h-457q0 -119 -48 -218.5t-127 -142.5v-12h796v-247z"/>
<glyph unicode="¤" glyph-name="currency" d="M1263 1080l-229 -228q46 -88 46 -185q0 -98 -46 -185l228 -229l-154 -154l-230 227q-88 -45 -185 -45q-93 0 -185 45l-228 -228l-155 156l227 228q-45 90 -45 185q0 96 45 184l-227 230l156 156l227 -230q87 46 185 46q95 0 185 -45l228 228zM690 867q-83 0 -139.5 -58 t-56.5 -142q0 -82 57 -140.5t139 -58.5q83 0 139 58t56 141q0 85 -56 142.5t-139 57.5z"/>
<glyph unicode="¥" glyph-name="yen" d="M1347 1507l-417 -716h266v-153h-348v-162h348v-153h-346v-323h-316v323h-346v153h348v162h-348v153h257l-406 716h364l297 -599l297 599h350z"/>
<glyph d="M644 765h-264v809h264v-809zM644 -397h-264v813h264v-813z" unicode="¦" glyph-name="brokenbar" horiz-adv-x="1024"/>
<glyph unicode="§" glyph-name="section" d="M1039 280v-7q171 -102 171 -295q0 -163 -161 -269.5t-424 -106.5q-236 0 -406 57v270h31q158 -94 352 -94q118 0 189 38t71 104q0 39 -26 70t-78 52t-251 77q-370 104 -370 350q0 200 210 333v7q-171 100 -171 295q0 162 162 269t423 107q237 0 406 -57v-270h-31 q-157 94 -352 94q-118 0 -189 -38.5t-71 -103.5q0 -39 25 -69t72 -50t258 -80q370 -105 370 -350q0 -199 -210 -333zM551 772q-107 -82 -107 -187q0 -57 61.5 -103t329.5 -115q107 83 107 187q0 62 -72.5 109t-318.5 109z"/>
<glyph unicode="̈" glyph-name="uni0308" d="M1090 1303h-279v271h279v-271zM575 1303h-279v271h279v-271z"/>
<glyph unicode="¨" glyph-name="uni0308" d="M1090 1303h-279v271h279v-271zM575 1303h-279v271h279v-271z"/>
<glyph d="M987 -191q-358 0 -611.5 253t-253.5 612q0 358 253.5 611t611.5 253t611.5 -253t253.5 -611q0 -359 -253.5 -612t-611.5 -253zM988 1406q-303 0 -515.5 -214t-212.5 -518t212.5 -519t515.5 -215t515.5 215t212.5 519t-212.5 518t-515.5 214zM1321 296q-166 -72 -288 -72 q-215 0 -345.5 121t-130.5 334q0 208 132.5 333t343.5 125q142 0 288 -71v-206h-21q-138 101 -263 101q-230 0 -230 -282q0 -279 230 -279q124 0 263 101h21v-205z" unicode="©" glyph-name="copyright" horiz-adv-x="1974"/>
<glyph d="M978 613h-244v115q-93 -86 -161 -112.5t-156 -26.5q-114 0 -189.5 76t-75.5 195q0 151 111 229.5t472 99.5v25q0 89 -58 127.5t-189 38.5q-87 0 -248 -69h-12v184q166 42 312 42q228 0 333 -73.5t105 -230.5v-620zM734 828v233q-237 -24 -289.5 -65t-52.5 -111 q0 -143 159 -143q96 0 183 86z" unicode="ª" glyph-name="ordfeminine" horiz-adv-x="1174"/>
<glyph d="M1416 128l-602 463v135l602 462v-264l-352 -266l352 -266v-264zM809 128l-602 463v135l602 462v-264l-352 -266l352 -266v-264z" unicode="«" glyph-name="guillemotleft" horiz-adv-x="1700"/>
<glyph d="M1511 39h-243v560h-1080v237h1323v-797z" unicode="¬" glyph-name="logicalnot" horiz-adv-x="1706"/>
<glyph d="M987 -191q-358 0 -611.5 253t-253.5 612q0 358 253.5 611t611.5 253t611.5 -253t253.5 -611q0 -359 -253.5 -612t-611.5 -253zM988 1406q-303 0 -515.5 -214t-212.5 -518t212.5 -519t515.5 -215t515.5 215t212.5 519t-212.5 518t-515.5 214zM1473 264h-271l-261 316h-86 v-316h-212v861h327q207 0 288 -64.5t81 -175.5q0 -171 -191 -250zM855 976v-243h51q106 0 151.5 32.5t45.5 103.5q0 52 -39 79.5t-142 27.5h-67z" unicode="®" glyph-name="registered" horiz-adv-x="1974"/>
<glyph d="M572 701q-178 0 -300 120.5t-122 297.5q0 178 121.5 298t300.5 120q180 0 301 -120t121 -298t-121.5 -298t-300.5 -120zM572 1348q-96 0 -160 -66t-64 -163q0 -99 64.5 -163.5t159.5 -64.5q96 0 160 65.5t64 162.5t-64 163t-160 66z" unicode="°" glyph-name="degree" horiz-adv-x="1143"/>
<glyph d="M1517 24h-1329v237h543v449h-543v237h543v540h243v-540h543v-237h-543v-449h543v-237z" unicode="±" glyph-name="plusminus" horiz-adv-x="1706"/>
<glyph d="M939 564h-788v171q280 196 381 304t101 189q0 124 -159 124q-141 0 -279 -82h-18v204q183 63 331 63q185 0 285.5 -75.5t100.5 -211.5q0 -102 -78 -214.5t-328 -288.5h451v-183z" unicode="²" glyph-name="uni00B2" horiz-adv-x="1026"/>
<glyph d="M133 608v202h25q157 -80 299 -80q205 0 205 140q0 54 -41 82.5t-178 28.5h-76v173h73q204 0 204 108q0 90 -165 90q-132 0 -293 -78h-23v200q183 63 342 63q193 0 292 -68.5t99 -176.5q0 -75 -46 -132.5t-124 -82.5q194 -44 194 -220q0 -143 -115.5 -228t-314.5 -85 q-183 0 -357 64z" unicode="³" glyph-name="uni00B3" horiz-adv-x="1026"/>
<glyph unicode="́" glyph-name="acutecomb" d="M1041 1676l-356 -373h-224l247 393h333v-20z"/>
<glyph unicode="´" glyph-name="acutecomb" d="M1041 1676l-356 -373h-224l247 393h333v-20z"/>
<glyph d="M1252 0h-260l-18 120h-8q-104 -135 -258 -135q-125 0 -242 117v-519h-307v1575h307v-873q87 -60 239 -60t240 60v873h307v-1158z" unicode="µ" glyph-name="mu" horiz-adv-x="1411"/>
<glyph unicode="¶" glyph-name="paragraph" d="M1177 -367h-162v1732h-181v-1732h-162v1005q-252 5 -390.5 119.5t-138.5 322.5q0 200 143.5 313.5t406.5 113.5h484v-1874z"/>
<glyph d="M893 564h-677v168h219v499h-219v158q143 1 190.5 34t56.5 98h219v-789h211v-168z" unicode="¹" glyph-name="uni00B9" horiz-adv-x="1026"/>
<glyph d="M587 584q-218 0 -339 126.5t-121 350.5t121.5 350.5t338.5 126.5q218 0 339 -126t121 -351q0 -224 -121 -350.5t-339 -126.5zM587 1379q-205 0 -205 -320q0 -316 207 -316q203 0 203 316q0 320 -205 320z" unicode="º" glyph-name="ordmasculine" horiz-adv-x="1174"/>
<glyph d="M1493 591l-602 -463v264l352 266l-352 266v264l602 -462v-135zM886 591l-602 -463v264l352 266l-352 266v264l602 -462v-135z" unicode="»" glyph-name="guillemotright" horiz-adv-x="1700"/>
<glyph d="M893 564h-677v168h219v499h-219v158q143 1 190.5 34t56.5 98h219v-789h211v-168zM1781 1518l-897 -1518h-240l897 1518h240zM2279 229h-141v-231h-242v231h-485v185l481 541h246v-550h141v-176zM1899 405v310l-276 -310h276z" unicode="¼" glyph-name="onequarter" horiz-adv-x="2404"/>
<glyph d="M893 564h-677v168h219v499h-219v158q143 1 190.5 34t56.5 98h219v-789h211v-168zM1771 1518l-897 -1518h-240l897 1518h240zM2287 0h-788v171q280 196 381 304t101 189q0 124 -159 124q-141 0 -279 -82h-18v204q183 63 331 63q185 0 285.5 -75.5t100.5 -211.5 q0 -102 -78 -214.5t-328 -288.5h451v-183z" unicode="½" glyph-name="onehalf" horiz-adv-x="2404"/>
<glyph d="M133 608v202h25q157 -80 299 -80q205 0 205 140q0 54 -41 82.5t-178 28.5h-76v173h73q204 0 204 108q0 90 -165 90q-132 0 -293 -78h-23v200q183 63 342 63q193 0 292 -68.5t99 -176.5q0 -75 -46 -132.5t-124 -82.5q194 -44 194 -220q0 -143 -115.5 -228t-314.5 -85 q-183 0 -357 64zM1781 1518l-897 -1518h-240l897 1518h240zM2279 229h-141v-231h-242v231h-485v185l481 541h246v-550h141v-176zM1899 405v310l-276 -310h276z" unicode="¾" glyph-name="threequarters" horiz-adv-x="2404"/>
<glyph d="M831 898h-346v260h346v-260zM1058 -296q-230 -83 -445 -83q-240 0 -380.5 107.5t-140.5 286.5q0 165 91.5 283.5t326.5 224.5v220h301v-321q-214 -77 -298.5 -161t-84.5 -192q0 -201 258 -201q166 0 341 110h31v-274z" unicode="¿" glyph-name="questiondown" horiz-adv-x="1192"/>
<glyph d="M1510 0h-349l-114 327h-593l-114 -327h-334l569 1507h366zM964 561l-213 608l-213 -608h426zM986 1673h-224l-356 373v20h333z" unicode="À" glyph-name="Agrave" horiz-adv-x="1516"/>
<glyph d="M1510 0h-349l-114 327h-593l-114 -327h-334l569 1507h366zM964 561l-213 608l-213 -608h426zM1087 2046l-356 -373h-224l247 393h333v-20z" unicode="Á" glyph-name="Aacute" horiz-adv-x="1516"/>
<glyph d="M1196 1673h-242l-196 223l-195 -223h-238l319 393h233zM1510 0h-349l-114 327h-593l-114 -327h-334l569 1507h366zM964 561l-213 608l-213 -608h426z" unicode="Â" glyph-name="Acircumflex" horiz-adv-x="1516"/>
<glyph d="M1182 1998q-28 -328 -265 -328q-91 0 -176 63q-90 67 -127 67q-87 0 -99 -138h-180q27 328 264 328q93 0 181 -66q86 -64 122 -64q87 0 100 138h180zM1510 0h-349l-114 327h-593l-114 -327h-334l569 1507h366zM964 561l-213 608l-213 -608h426z" unicode="Ã" glyph-name="Atilde" horiz-adv-x="1516"/>
<glyph d="M1510 0h-349l-114 327h-593l-114 -327h-334l569 1507h366zM964 561l-213 608l-213 -608h426zM1155 1669h-279v271h279v-271zM640 1669h-279v271h279v-271z" unicode="Ä" glyph-name="Adieresis" horiz-adv-x="1516"/>
<glyph d="M1510 0h-349l-114 327h-593l-114 -327h-334l569 1507h366zM964 561l-213 608l-213 -608h426zM758 1627q-129 0 -211.5 76.5t-82.5 195.5q0 118 82.5 195t211.5 77q130 0 212 -76.5t82 -195.5q0 -118 -82.5 -195t-211.5 -77zM758 2033q-56 0 -90.5 -37.5t-34.5 -96.5 t34.5 -96t90.5 -37t90.5 37.5t34.5 95.5q0 59 -34.5 96.5t-90.5 37.5z" unicode="Å" glyph-name="Aring" horiz-adv-x="1516"/>
<glyph d="M2125 0h-1048v447h-540l-193 -447h-341l680 1507h1442v-250h-722v-322h671v-249h-671v-436h722v-250zM1077 696v564h-190l-242 -564h432z" unicode="Æ" glyph-name="AE" horiz-adv-x="2234"/>
<glyph d="M1345 101q-191 -88 -308 -111q3 -36 3 -69q0 -160 -93.5 -252t-254.5 -92q-106 0 -202 26v191h14q90 -41 158 -41q181 0 181 180q0 20 -1 37h-15q-346 0 -545 206t-199 575q0 362 201.5 573.5t543.5 211.5q265 0 517 -127v-309h-35q-235 200 -445 200q-201 0 -318 -143.5 t-117 -406.5q0 -261 119 -402.5t318 -141.5q104 0 203 36.5t243 162.5h32v-304z" unicode="Ç" glyph-name="Ccedilla" horiz-adv-x="1409"/>
<glyph d="M1229 0h-1050v1507h1050v-250h-722v-322h671v-249h-671v-436h722v-250zM846 1673h-224l-356 373v20h333z" unicode="È" glyph-name="Egrave" horiz-adv-x="1338"/>
<glyph d="M1229 0h-1050v1507h1050v-250h-722v-322h671v-249h-671v-436h722v-250zM1101 2046l-356 -373h-224l247 393h333v-20z" unicode="É" glyph-name="Eacute" horiz-adv-x="1338"/>
<glyph d="M1140 1673h-242l-196 223l-195 -223h-238l319 393h233zM1229 0h-1050v1507h1050v-250h-722v-322h671v-249h-671v-436h722v-250z" unicode="Ê" glyph-name="Ecircumflex" horiz-adv-x="1338"/>
<glyph d="M1229 0h-1050v1507h1050v-250h-722v-322h671v-249h-671v-436h722v-250zM1123 1669h-279v271h279v-271zM608 1669h-279v271h279v-271z" unicode="Ë" glyph-name="Edieresis" horiz-adv-x="1338"/>
<glyph d="M932 0h-822v225h246v1057h-246v225h822v-225h-246v-1057h246v-225zM656 1673h-224l-356 373v20h333z" unicode="Ì" glyph-name="Igrave" horiz-adv-x="1042"/>
<glyph d="M932 0h-822v225h246v1057h-246v225h822v-225h-246v-1057h246v-225zM961 2046l-356 -373h-224l247 393h333v-20z" unicode="Í" glyph-name="Iacute" horiz-adv-x="1042"/>
<glyph d="M957 1673h-242l-196 223l-195 -223h-238l319 393h233zM932 0h-822v225h246v1057h-246v225h822v-225h-246v-1057h246v-225z" unicode="Î" glyph-name="Icircumflex" horiz-adv-x="1042"/>
<glyph d="M932 0h-822v225h246v1057h-246v225h822v-225h-246v-1057h246v-225zM918 1669h-279v271h279v-271zM403 1669h-279v271h279v-271z" unicode="Ï" glyph-name="Idieresis" horiz-adv-x="1042"/>
<glyph d="M189 0v684h-170v218h170v605h471q320 0 499 -82t282.5 -252t103.5 -421q0 -227 -107.5 -407.5t-287.5 -262.5t-486 -82h-475zM517 1270v-368h384v-218h-384v-447h164q519 0 519 518q0 515 -519 515h-164z" unicode="Ð" glyph-name="Eth" horiz-adv-x="1628"/>
<glyph d="M1246 1998q-28 -328 -265 -328q-91 0 -176 63q-90 67 -127 67q-87 0 -99 -138h-180q27 328 264 328q93 0 181 -66q86 -64 122 -64q87 0 100 138h180zM1479 0h-318l-676 1105v-1105h-306v1507h400l594 -974v974h306v-1507z" unicode="Ñ" glyph-name="Ntilde" horiz-adv-x="1658"/>
<glyph d="M820 -32q-344 0 -540.5 209.5t-196.5 574.5q0 367 195.5 576.5t541.5 209.5q345 0 541.5 -210t196.5 -576q0 -363 -195.5 -573.5t-542.5 -210.5zM821 1300q-179 0 -285 -143t-106 -405q0 -261 106 -403.5t285 -142.5q178 0 284 143.5t106 403.5q0 261 -105.5 404 t-284.5 143zM1054 1673h-224l-356 373v20h333z" unicode="Ò" glyph-name="Ograve" horiz-adv-x="1641"/>
<glyph d="M820 -32q-344 0 -540.5 209.5t-196.5 574.5q0 367 195.5 576.5t541.5 209.5q345 0 541.5 -210t196.5 -576q0 -363 -195.5 -573.5t-542.5 -210.5zM821 1300q-179 0 -285 -143t-106 -405q0 -261 106 -403.5t285 -142.5q178 0 284 143.5t106 403.5q0 261 -105.5 404 t-284.5 143zM1168 2046l-356 -373h-224l247 393h333v-20z" unicode="Ó" glyph-name="Oacute" horiz-adv-x="1641"/>
<glyph d="M1256 1673h-242l-196 223l-195 -223h-238l319 393h233zM820 -32q-344 0 -540.5 209.5t-196.5 574.5q0 367 195.5 576.5t541.5 209.5q345 0 541.5 -210t196.5 -576q0 -363 -195.5 -573.5t-542.5 -210.5zM821 1300q-179 0 -285 -143t-106 -405q0 -261 106 -403.5 t285 -142.5q178 0 284 143.5t106 403.5q0 261 -105.5 404t-284.5 143z" unicode="Ô" glyph-name="Ocircumflex" horiz-adv-x="1641"/>
<glyph d="M1244 1998q-28 -328 -265 -328q-91 0 -176 63q-90 67 -127 67q-87 0 -99 -138h-180q27 328 264 328q93 0 181 -66q86 -64 122 -64q87 0 100 138h180zM820 -32q-344 0 -540.5 209.5t-196.5 574.5q0 367 195.5 576.5t541.5 209.5q345 0 541.5 -210t196.5 -576 q0 -363 -195.5 -573.5t-542.5 -210.5zM821 1300q-179 0 -285 -143t-106 -405q0 -261 106 -403.5t285 -142.5q178 0 284 143.5t106 403.5q0 261 -105.5 404t-284.5 143z" unicode="Õ" glyph-name="Otilde" horiz-adv-x="1641"/>
<glyph d="M820 -32q-344 0 -540.5 209.5t-196.5 574.5q0 367 195.5 576.5t541.5 209.5q345 0 541.5 -210t196.5 -576q0 -363 -195.5 -573.5t-542.5 -210.5zM821 1300q-179 0 -285 -143t-106 -405q0 -261 106 -403.5t285 -142.5q178 0 284 143.5t106 403.5q0 261 -105.5 404 t-284.5 143zM1217 1669h-279v271h279v-271zM702 1669h-279v271h279v-271z" unicode="Ö" glyph-name="Odieresis" horiz-adv-x="1641"/>
<glyph d="M1461 221l-164 -163l-444 447l-443 -445l-163 163l444 443l-447 445l164 163l445 -447l442 445l164 -163l-445 -443z" unicode="×" glyph-name="multiply" horiz-adv-x="1706"/>
<glyph d="M406 74l-160 -216h-173l224 302q-214 211 -214 592q0 367 195.5 576.5t541.5 209.5q243 0 415 -107l132 179h176l-198 -266q213 -211 213 -592q0 -363 -195.5 -573.5t-542.5 -210.5q-240 0 -414 106zM1071 1209q-101 98 -250 98q-182 0 -291 -145t-109 -410 q0 -205 64 -340zM1157 1092l-587 -796q103 -97 251 -97q181 0 290 146t109 408q0 204 -63 339z" unicode="Ø" glyph-name="Oslash" horiz-adv-x="1641"/>
<glyph d="M1443 564q0 -297 -166.5 -446t-475.5 -149q-310 0 -475.5 150.5t-165.5 444.5v943h331v-934q0 -188 77 -272t233 -84q160 0 235.5 83.5t75.5 270.5v936h331v-943zM954 1673h-224l-356 373v20h333z" unicode="Ù" glyph-name="Ugrave" horiz-adv-x="1603"/>
<glyph d="M1443 564q0 -297 -166.5 -446t-475.5 -149q-310 0 -475.5 150.5t-165.5 444.5v943h331v-934q0 -188 77 -272t233 -84q160 0 235.5 83.5t75.5 270.5v936h331v-943zM1201 2046l-356 -373h-224l247 393h333v-20z" unicode="Ú" glyph-name="Uacute" horiz-adv-x="1603"/>
<glyph d="M1237 1673h-242l-196 223l-195 -223h-238l319 393h233zM1443 564q0 -297 -166.5 -446t-475.5 -149q-310 0 -475.5 150.5t-165.5 444.5v943h331v-934q0 -188 77 -272t233 -84q160 0 235.5 83.5t75.5 270.5v936h331v-943z" unicode="Û" glyph-name="Ucircumflex" horiz-adv-x="1603"/>
<glyph d="M1443 564q0 -297 -166.5 -446t-475.5 -149q-310 0 -475.5 150.5t-165.5 444.5v943h331v-934q0 -188 77 -272t233 -84q160 0 235.5 83.5t75.5 270.5v936h331v-943zM1199 1669h-279v271h279v-271zM684 1669h-279v271h279v-271z" unicode="Ü" glyph-name="Udieresis" horiz-adv-x="1603"/>
<glyph d="M1437 1507l-548 -929v-578h-330v559l-558 948h373l362 -653l346 653h355zM1121 2046l-356 -373h-224l247 393h333v-20z" unicode="Ý" glyph-name="Yacute" horiz-adv-x="1438"/>
<glyph d="M509 276v-276h-330v1507h330v-236h244q290 0 443.5 -119.5t153.5 -350.5q0 -240 -168 -382.5t-438 -142.5h-235zM507 1033v-518h92q248 0 328.5 68.5t80.5 210.5q0 117 -77.5 178t-306.5 61h-117z" unicode="Þ" glyph-name="Thorn" horiz-adv-x="1431"/>
<glyph d="M602 0v226h43q58 -21 126 -21q105 0 169 75t64 202q0 126 -82.5 183.5t-271.5 57.5v233q251 0 251 230q0 188 -204 188q-231 0 -231 -279v-1095h-307v1069q0 245 144 380.5t398 135.5q238 0 373.5 -99t135.5 -261q0 -138 -78 -233t-203 -116v-9q184 -27 290 -132 t106 -261q0 -234 -144.5 -361t-408.5 -127q-81 0 -170 14z" unicode="ß" glyph-name="germandbls" horiz-adv-x="1396"/>
<glyph d="M1141 0h-305v151q-141 -121 -228.5 -151.5t-186.5 -30.5q-152 0 -252 98.5t-100 253.5q0 196 147.5 297t622.5 126v31q0 109 -75 158t-248 49q-118 0 -338 -90h-11v243q232 56 420 56q293 0 423.5 -94.5t130.5 -300.5v-796zM836 282v292q-302 -25 -378 -77.5t-76 -145.5 q0 -99 53 -138t166 -39q119 0 235 108zM872 1303h-224l-356 373v20h333z" unicode="à" glyph-name="agrave" horiz-adv-x="1290"/>
<glyph d="M1141 0h-305v151q-141 -121 -228.5 -151.5t-186.5 -30.5q-152 0 -252 98.5t-100 253.5q0 196 147.5 297t622.5 126v31q0 109 -75 158t-248 49q-118 0 -338 -90h-11v243q232 56 420 56q293 0 423.5 -94.5t130.5 -300.5v-796zM836 282v292q-302 -25 -378 -77.5t-76 -145.5 q0 -99 53 -138t166 -39q119 0 235 108zM1003 1676l-356 -373h-224l247 393h333v-20z" unicode="á" glyph-name="aacute" horiz-adv-x="1290"/>
<glyph d="M1047 1303h-242l-196 223l-195 -223h-238l319 393h233zM1141 0h-305v151q-141 -121 -228.5 -151.5t-186.5 -30.5q-152 0 -252 98.5t-100 253.5q0 196 147.5 297t622.5 126v31q0 109 -75 158t-248 49q-118 0 -338 -90h-11v243q232 56 420 56q293 0 423.5 -94.5 t130.5 -300.5v-796zM836 282v292q-302 -25 -378 -77.5t-76 -145.5q0 -99 53 -138t166 -39q119 0 235 108z" unicode="â" glyph-name="acircumflex" horiz-adv-x="1290"/>
<glyph d="M1051 1638q-28 -328 -265 -328q-91 0 -176 63q-90 67 -127 67q-87 0 -99 -138h-180q27 328 264 328q93 0 181 -66q86 -64 122 -64q87 0 100 138h180zM1141 0h-305v151q-141 -121 -228.5 -151.5t-186.5 -30.5q-152 0 -252 98.5t-100 253.5q0 196 147.5 297t622.5 126v31 q0 109 -75 158t-248 49q-118 0 -338 -90h-11v243q232 56 420 56q293 0 423.5 -94.5t130.5 -300.5v-796zM836 282v292q-302 -25 -378 -77.5t-76 -145.5q0 -99 53 -138t166 -39q119 0 235 108z" unicode="ã" glyph-name="atilde" horiz-adv-x="1290"/>
<glyph d="M1141 0h-305v151q-141 -121 -228.5 -151.5t-186.5 -30.5q-152 0 -252 98.5t-100 253.5q0 196 147.5 297t622.5 126v31q0 109 -75 158t-248 49q-118 0 -338 -90h-11v243q232 56 420 56q293 0 423.5 -94.5t130.5 -300.5v-796zM836 282v292q-302 -25 -378 -77.5t-76 -145.5 q0 -99 53 -138t166 -39q119 0 235 108zM1024 1303h-279v271h279v-271zM509 1303h-279v271h279v-271z" unicode="ä" glyph-name="adieresis" horiz-adv-x="1290"/>
<glyph d="M1141 0h-305v151q-141 -121 -228.5 -151.5t-186.5 -30.5q-152 0 -252 98.5t-100 253.5q0 196 147.5 297t622.5 126v31q0 109 -75 158t-248 49q-118 0 -338 -90h-11v243q232 56 420 56q293 0 423.5 -94.5t130.5 -300.5v-796zM836 282v292q-302 -25 -378 -77.5t-76 -145.5 q0 -99 53 -138t166 -39q119 0 235 108zM623 1298q-129 0 -211.5 76.5t-82.5 195.5q0 118 82.5 195t211.5 77q130 0 212 -76.5t82 -195.5q0 -118 -82.5 -195t-211.5 -77zM623 1704q-56 0 -90.5 -37.5t-34.5 -96.5t34.5 -96t90.5 -37t90.5 37.5t34.5 95.5q0 59 -34.5 96.5 t-90.5 37.5z" unicode="å" glyph-name="aring" horiz-adv-x="1290"/>
<glyph d="M1930 531h-805q20 -348 385 -348q193 0 388 142h11v-266q-233 -90 -437 -90q-378 0 -539 217q-149 -131 -263 -174t-239 -43q-158 0 -260 98.5t-102 249.5q0 190 143 290t620 127v43q0 205 -321 205q-113 0 -333 -90h-11v243q232 56 420 56q312 0 446 -120 q157 123 381 123q516 0 516 -555v-108zM1623 705q-4 299 -236 299q-115 0 -184.5 -78.5t-77.5 -220.5h498zM866 309q-41 108 -43 254q-289 -25 -365 -75.5t-76 -140.5q0 -173 209 -173q137 0 275 135z" unicode="æ" glyph-name="ae" horiz-adv-x="1998"/>
<glyph d="M1066 57q-51 -23 -169 -65l3 -71q0 -160 -93.5 -252t-254.5 -92q-106 0 -202 26v191h14q90 -41 158 -41q181 0 181 180q0 19 -1 36q-298 3 -464.5 160t-166.5 445q0 293 172 454.5t460 161.5q188 0 363 -89v-282h-16q-170 152 -335 152q-153 0 -238 -105t-85 -292 t85.5 -286.5t242.5 -99.5q167 0 330 152h16v-283z" unicode="ç" glyph-name="ccedilla" horiz-adv-x="1120"/>
<glyph d="M1202 531h-821q20 -348 395 -348q196 0 394 142h11v-266q-235 -90 -442 -90q-326 0 -497 155t-171 447q0 290 162 456.5t447 166.5q522 0 522 -555v-108zM895 705q-4 299 -243 299q-254 0 -271 -299h514zM826 1303h-224l-356 373v20h333z" unicode="è" glyph-name="egrave" horiz-adv-x="1270"/>
<glyph d="M1202 531h-821q20 -348 395 -348q196 0 394 142h11v-266q-235 -90 -442 -90q-326 0 -497 155t-171 447q0 290 162 456.5t447 166.5q522 0 522 -555v-108zM895 705q-4 299 -243 299q-254 0 -271 -299h514zM1030 1676l-356 -373h-224l247 393h333v-20z" unicode="é" glyph-name="eacute" horiz-adv-x="1270"/>
<glyph d="M1109 1303h-242l-196 223l-195 -223h-238l319 393h233zM1202 531h-821q20 -348 395 -348q196 0 394 142h11v-266q-235 -90 -442 -90q-326 0 -497 155t-171 447q0 290 162 456.5t447 166.5q522 0 522 -555v-108zM895 705q-4 299 -243 299q-254 0 -271 -299h514z" unicode="ê" glyph-name="ecircumflex" horiz-adv-x="1270"/>
<glyph d="M1202 531h-821q20 -348 395 -348q196 0 394 142h11v-266q-235 -90 -442 -90q-326 0 -497 155t-171 447q0 290 162 456.5t447 166.5q522 0 522 -555v-108zM895 705q-4 299 -243 299q-254 0 -271 -299h514zM1072 1303h-279v271h279v-271zM557 1303h-279v271h279v-271z" unicode="ë" glyph-name="edieresis" horiz-adv-x="1270"/>
<glyph d="M466 0h-307v1158h307v-1158zM466 1303h-224l-356 373v20h333z" unicode="ì" glyph-name="igrave" horiz-adv-x="625"/>
<glyph d="M466 0h-307v1158h307v-1158zM761 1676l-356 -373h-224l247 393h333v-20z" unicode="í" glyph-name="iacute" horiz-adv-x="625"/>
<glyph d="M748 1303h-242l-196 223l-195 -223h-238l319 393h233zM466 0h-307v1158h307v-1158z" unicode="î" glyph-name="icircumflex" horiz-adv-x="625"/>
<glyph d="M466 0h-307v1158h307v-1158zM710 1303h-279v271h279v-271zM195 1303h-279v271h279v-271z" unicode="ï" glyph-name="idieresis" horiz-adv-x="625"/>
<glyph d="M873 965q-49 135 -199 288l-372 -137v179l235 83q-144 114 -291 169v27h436q71 -46 132 -96l303 112v-179l-167 -59q280 -298 280 -684q0 -327 -156.5 -515.5t-432.5 -188.5q-266 0 -418 147.5t-152 411.5q0 234 148.5 377t385.5 143q122 0 268 -78zM906 773 q-113 68 -243 68q-271 0 -271 -308q0 -355 264 -355q261 0 261 451q0 73 -11 144z" unicode="ð" glyph-name="eth" horiz-adv-x="1304"/>
<glyph d="M1116 1638q-28 -328 -265 -328q-91 0 -176 63q-90 67 -127 67q-87 0 -99 -138h-180q27 328 264 328q93 0 181 -66q86 -64 122 -64q87 0 100 138h180zM1243 0h-309v577q0 242 -53.5 300.5t-173.5 58.5q-100 0 -241 -89v-847h-307v1158h307v-162q144 118 230.5 156 t180.5 38q366 0 366 -429v-761z" unicode="ñ" glyph-name="ntilde" horiz-adv-x="1393"/>
<glyph d="M665 -36q-282 0 -438 162.5t-156 451.5q0 290 157.5 453t436.5 163q281 0 437.5 -163t156.5 -453q0 -289 -156.5 -451.5t-437.5 -162.5zM665 980q-273 0 -273 -405q0 -397 277 -397q269 0 269 397q0 405 -273 405zM898 1303h-224l-356 373v20h333z" unicode="ò" glyph-name="ograve" horiz-adv-x="1330"/>
<glyph d="M665 -36q-282 0 -438 162.5t-156 451.5q0 290 157.5 453t436.5 163q281 0 437.5 -163t156.5 -453q0 -289 -156.5 -451.5t-437.5 -162.5zM665 980q-273 0 -273 -405q0 -397 277 -397q269 0 269 397q0 405 -273 405zM1013 1676l-356 -373h-224l247 393h333v-20z" unicode="ó" glyph-name="oacute" horiz-adv-x="1330"/>
<glyph d="M1101 1303h-242l-196 223l-195 -223h-238l319 393h233zM665 -36q-282 0 -438 162.5t-156 451.5q0 290 157.5 453t436.5 163q281 0 437.5 -163t156.5 -453q0 -289 -156.5 -451.5t-437.5 -162.5zM665 980q-273 0 -273 -405q0 -397 277 -397q269 0 269 397q0 405 -273 405z " unicode="ô" glyph-name="ocircumflex" horiz-adv-x="1330"/>
<glyph d="M1089 1638q-28 -328 -265 -328q-91 0 -176 63q-90 67 -127 67q-87 0 -99 -138h-180q27 328 264 328q93 0 181 -66q86 -64 122 -64q87 0 100 138h180zM665 -36q-282 0 -438 162.5t-156 451.5q0 290 157.5 453t436.5 163q281 0 437.5 -163t156.5 -453q0 -289 -156.5 -451.5 t-437.5 -162.5zM665 980q-273 0 -273 -405q0 -397 277 -397q269 0 269 397q0 405 -273 405z" unicode="õ" glyph-name="otilde" horiz-adv-x="1330"/>
<glyph d="M665 -36q-282 0 -438 162.5t-156 451.5q0 290 157.5 453t436.5 163q281 0 437.5 -163t156.5 -453q0 -289 -156.5 -451.5t-437.5 -162.5zM665 980q-273 0 -273 -405q0 -397 277 -397q269 0 269 397q0 405 -273 405zM1062 1303h-279v271h279v-271zM547 1303h-279v271h279 v-271z" unicode="ö" glyph-name="odieresis" horiz-adv-x="1330"/>
<glyph d="M1023 1016h-341v354h341v-354zM1517 548h-1329v237h1329v-237zM1023 -37h-341v354h341v-354z" unicode="÷" glyph-name="divide" horiz-adv-x="1706"/>
<glyph d="M347 36l-144 -198h-152l197 269q-177 165 -177 471q0 290 157.5 453t436.5 163q187 0 319 -73l122 168h153l-176 -240q176 -165 176 -471q0 -289 -156.5 -451.5t-437.5 -162.5q-186 0 -318 72zM841 924q-64 60 -176 60q-279 0 -279 -409q0 -144 33 -235zM911 815 l-421 -582q66 -59 179 -59q275 0 275 401q0 148 -33 240z" unicode="ø" glyph-name="oslash" horiz-adv-x="1330"/>
<glyph d="M1234 0h-307v162q-140 -114 -228 -154t-183 -40q-366 0 -366 429v761h309v-577q0 -242 53 -301t173 -59q103 0 242 90v847h307v-1158zM831 1303h-224l-356 373v20h333z" unicode="ù" glyph-name="ugrave" horiz-adv-x="1393"/>
<glyph d="M1234 0h-307v162q-140 -114 -228 -154t-183 -40q-366 0 -366 429v761h309v-577q0 -242 53 -301t173 -59q103 0 242 90v847h307v-1158zM1096 1676l-356 -373h-224l247 393h333v-20z" unicode="ú" glyph-name="uacute" horiz-adv-x="1393"/>
<glyph d="M1128 1303h-242l-196 223l-195 -223h-238l319 393h233zM1234 0h-307v162q-140 -114 -228 -154t-183 -40q-366 0 -366 429v761h309v-577q0 -242 53 -301t173 -59q103 0 242 90v847h307v-1158z" unicode="û" glyph-name="ucircumflex" horiz-adv-x="1393"/>
<glyph d="M1234 0h-307v162q-140 -114 -228 -154t-183 -40q-366 0 -366 429v761h309v-577q0 -242 53 -301t173 -59q103 0 242 90v847h307v-1158zM1089 1303h-279v271h279v-271zM574 1303h-279v271h279v-271z" unicode="ü" glyph-name="udieresis" horiz-adv-x="1393"/>
<glyph d="M1242 1158l-635 -1575h-324l176 415l-453 1160h333l292 -827l295 827h316zM1036 1676l-356 -373h-224l247 393h333v-20z" unicode="ý" glyph-name="yacute" horiz-adv-x="1248"/>
<glyph d="M466 82v-499h-307v1991h307v-571q134 113 218.5 150t178.5 37q203 0 315 -156t112 -436q0 -275 -142 -445.5t-354 -170.5q-148 0 -328 100zM466 871v-638q82 -34 187 -34q319 0 319 387q0 367 -267 367q-109 0 -239 -82z" unicode="þ" glyph-name="thorn" horiz-adv-x="1363"/>
<glyph d="M466 0h-307v1158h307v-1158z" unicode="ı" glyph-name="dotlessi" horiz-adv-x="625"/>
<glyph unicode="̊" glyph-name="uni030A" d="M693 1298q-129 0 -211.5 76.5t-82.5 195.5q0 118 82.5 195t211.5 77q130 0 212 -76.5t82 -195.5q0 -118 -82.5 -195t-211.5 -77zM693 1704q-56 0 -90.5 -37.5t-34.5 -96.5t34.5 -96t90.5 -37t90.5 37.5t34.5 95.5q0 59 -34.5 96.5t-90.5 37.5z"/>
<glyph d="M745 1518l-897 -1518h-240l897 1518h240z" unicode="⁄" glyph-name="fraction" horiz-adv-x="352"/>
<glyph d="M961 793h-141v-231h-242v231h-485v185l481 541h246v-550h141v-176zM581 969v310l-276 -310h276z" unicode="⁴" glyph-name="uni2074" horiz-adv-x="1026"/>
</font>
</defs>
</svg>
